<svg id="Capa_1" enable-background="new 0 0 512 512" height="512" viewBox="0 0 512 512" width="512" xmlns="http://www.w3.org/2000/svg"><g><g><path d="m483 342v-40h-139.51l-87.49 200h227v-40h20v-120z" fill="#ffda8f"/><g fill="#a0e5a5"><path d="m168.51 302c-4.959 0-28.182 0-55.51 0v-40h40l-60-80-60 80h40v40c-28.864 0-55.002 0-63 0v200h246z"/><path d="m419 142 61 80h-40v80h-42v-80h-40z"/><path d="m256 10 80 100h-40v72h-80v-72h-40z"/></g><path d="m293.98 242 42.02-60c-13.891 0-123.793 0-160 0 .346.515-4.374-6.511 40.98 61.01-41.619 44.874-80.98 97.329-80.98 158.99v20c0 64.048 56.164 80 120 80 63.819 0 120-15.942 120-80v-20c0-87.449-81.943-159.898-82.02-160z" fill="#ff7d95"/></g><g><path d="m256.17 371.58c-5.514 0-10-4.486-10-10 0-5.47 4.446-9.955 9.9-10 3.568-.065 7.357 1.782 10.916 5.226 3.968 3.843 10.301 3.739 14.14-.231 3.841-3.969 3.737-10.299-.231-14.14-5.125-4.96-10.268-7.753-14.895-9.262v-11.173c0-5.522-4.478-10-10-10s-10 4.478-10 10v11.368c-11.54 4.19-19.83 15.282-19.83 28.212 0 16.542 13.458 30 30 30 5.514 0 10 4.486 10 10 0 5.553-4.503 10.001-9.986 10.001-.03 0-.061 0-.092-.001-4.328-.039-8.789-2.651-12.898-7.555-3.549-4.231-9.856-4.787-14.088-1.238-4.232 3.548-4.787 9.855-1.239 14.088 5.287 6.306 11.518 10.722 18.134 12.978v12.147c0 5.522 4.478 10 10 10s10-4.478 10-10v-12.061c11.523-3.985 20.17-14.999 20.17-28.359-.001-16.542-13.459-30-30.001-30z"/><path d="m502 332h-10v-30c0-5.522-4.478-10-10-10h-32v-60h30c3.802 0 7.275-2.156 8.962-5.563s1.296-7.477-1.01-10.5l-61-80c-1.892-2.48-4.833-3.937-7.952-3.937s-6.061 1.456-7.952 3.937l-61 80c-2.306 3.023-2.696 7.093-1.01 10.5s5.16 5.563 8.962 5.563h30v60h-38.927c-11.126-17.716-23.672-33.523-36.514-45.95l-5.49-5.306 37.122-53.007c2.139-3.055 2.4-7.046.679-10.354s-5.141-5.383-8.87-5.383h-30v-52h30c3.844 0 7.348-2.203 9.013-5.668 1.666-3.465 1.197-7.577-1.204-10.579l-80-100c-1.898-2.372-4.771-3.753-7.809-3.753s-5.911 1.381-7.809 3.753l-80 100c-2.401 3.002-2.87 7.114-1.205 10.579 1.666 3.465 5.169 5.668 9.013 5.668h30v52h-30c-3.688 0-7.077 2.03-8.817 5.281-1.74 3.252-1.549 7.197.497 10.266l36.164 54.247-4.408 4.26c-12.838 12.423-25.384 28.231-36.51 45.946h-39.925v-20h30c3.788 0 7.25-2.14 8.944-5.528s1.328-7.441-.944-10.472l-60-80c-1.889-2.518-4.853-4-8-4s-6.111 1.482-8 4l-60 80c-2.272 3.03-2.638 7.084-.944 10.472s5.156 5.528 8.944 5.528h30v20h-53c-5.523 0-10 4.478-10 10v200c0 5.522 4.477 10 10 10h33c5.523 0 10-4.478 10-10s-4.477-10-10-10h-23v-20h120.696c5.67 7.832 12.899 14.491 21.725 20h-29.421c-5.523 0-10 4.478-10 10s4.477 10 10 10h349c5.522 0 10-4.478 10-10v-30h10c5.522 0 10-4.478 10-10 0-15.003 0-106.901 0-120 0-5.522-4.478-10-10-10zm-30-20v20h-22v-20zm-93.8-100 40.8-53.508 40.8 53.508h-19.8c-5.522 0-10 4.478-10 10v70h-22v-70c0-5.522-4.478-10-10-10zm49.8 220h22v20h-22zm-20-100v-20h22v20zm20 80v-20h22v20zm0-40v-20h22v20zm-20-20v20h-25.287c-1.35-6.524-3.121-13.204-5.296-20zm-22 60v-10c0-3.265-.141-6.609-.4-10h22.4v20zm22 20v20h-26.496c2.052-6.21 3.401-12.89 4.048-20zm-20-120v20h-18.01c-2.821-6.69-5.965-13.371-9.426-20zm-191.194-212 59.194-73.992 59.193 73.992h-19.193c-5.522 0-10 4.478-10 10v62h-60v-62c0-5.522-4.477-10-10-10zm-2.121 92h122.103l-28.013 40h-67.423zm-141.685 60 40-53.333 40 53.333h-20c-5.523 0-10 4.478-10 10v30h-20v-30c0-5.522-4.477-10-10-10zm17 80c-5.523 0-10 4.478-10 10 0 5.514-4.486 10-10 10-5.523 0-10 4.478-10 10v40c0 5.522 4.477 10 10 10 5.514 0 10 4.486 10 10 0 5.522 4.477 10 10 10h56.449c.647 7.11 1.996 13.79 4.048 20h-110.497v-140.01h131.436c-3.462 6.64-6.606 13.321-9.427 20.01zm64.565 20c-5.682 17.712-8.565 34.481-8.565 50v10h-47.713c-3.018-8.512-9.775-15.269-18.287-18.286v-23.428c8.512-3.018 15.269-9.774 18.287-18.286zm121.435 140c-57.173 0-110-12.569-110-70v-20c0-47.736 33.368-108.696 67.338-141.567l8.729-8.433h67.871l8.719 8.426c33.878 32.788 67.343 93.75 67.343 141.574v20c0 57.676-52.192 70-110 70zm132 0h-38.421c8.826-5.509 16.055-12.168 21.725-20h16.696zm42 0h-22v-20h22zm42 0h-22v-20h22zm20-40c-3.265 0-18.759 0-22 0v-20h22zm0-40h-22v-20h22zm0-40h-22v-20h22z"/><circle cx="88" cy="502" r="10"/></g></g></svg>